<svg width="156" height="49" viewBox="0 0 156 49" fill="none" xmlns="http://www.w3.org/2000/svg">
<g clip-path="url(#clip0_452_5487)">
<path d="M156 0.36L155.64 0C154.905 0.736853 154.031 1.32143 153.069 1.72028C152.107 2.11913 151.077 2.32443 150.035 2.32443C148.994 2.32443 147.963 2.11913 147.001 1.72028C146.04 1.32143 145.166 0.736853 144.43 0V0L144.07 0.36C144.807 1.09561 145.392 1.9693 145.791 2.93107C146.189 3.89283 146.395 4.92381 146.395 5.965C146.395 7.00619 146.189 8.03717 145.791 8.99893C145.392 9.9607 144.807 10.8344 144.07 11.57V11.57L144.43 11.93C145.166 11.1931 146.04 10.6086 147.001 10.2097C147.963 9.81087 148.994 9.60557 150.035 9.60557C151.077 9.60557 152.107 9.81087 153.069 10.2097C154.031 10.6086 154.905 11.1931 155.64 11.93V11.93L156 11.57C155.263 10.8344 154.679 9.9607 154.28 8.99893C153.881 8.03717 153.676 7.00619 153.676 5.965C153.676 4.92381 153.881 3.89283 154.28 2.93107C154.679 1.9693 155.263 1.09561 156 0.36V0.36Z" fill="#FF9100"/>
<path d="M6.12222 38.3604C4.23296 37.3681 2.66778 35.855 1.61222 34.0004C0.515592 32.0266 -0.0398339 29.798 0.00222273 27.5404C-0.0373111 25.3401 0.518999 23.1702 1.61222 21.2604C2.67071 19.4437 4.22464 17.9661 6.09222 17.0004C8.12141 15.9761 10.3695 15.4612 12.6422 15.5004C14.8792 15.4585 17.0907 15.9813 19.0722 17.0204C20.8934 18.0003 22.3986 19.4777 23.4122 21.2804C24.4915 23.2203 25.04 25.4107 25.0022 27.6304C25.0022 28.1904 25.0022 28.6304 25.0022 29.0004C24.992 29.1737 24.9159 29.3366 24.7894 29.4556C24.663 29.5745 24.4958 29.6407 24.3222 29.6404H6.86222C7.04062 31.1378 7.75026 32.5217 8.86222 33.5404C10.0046 34.5387 11.4863 35.0612 13.0022 35.0004C14.1657 35.0251 15.3138 34.7312 16.3222 34.1504C17.1086 33.6948 17.774 33.0569 18.2622 32.2904C18.3406 32.1716 18.4538 32.08 18.5863 32.0281C18.7187 31.9762 18.864 31.9665 19.0022 32.0004L23.4022 33.1204C23.4975 33.1466 23.586 33.1929 23.6618 33.2563C23.7376 33.3197 23.799 33.3986 23.8416 33.4877C23.8843 33.5769 23.9073 33.6741 23.9091 33.7729C23.911 33.8717 23.8916 33.9697 23.8522 34.0604C23.0418 35.8136 21.6836 37.2561 19.9822 38.1704C17.7608 39.3907 15.256 40.0014 12.7222 39.9404C10.4243 39.9773 8.15428 39.4339 6.12222 38.3604V38.3604ZM18.1922 25.5204C18.0307 24.1155 17.3622 22.8177 16.3122 21.8704C15.2554 20.9271 13.8783 20.4228 12.4622 20.4604C11.0867 20.4138 9.74655 20.9012 8.72222 21.8204C7.68266 22.8001 7.00881 24.1055 6.81222 25.5204H18.1922Z" fill="#482973"/>
<path d="M58.5908 38.3604C56.7015 37.3681 55.1364 35.855 54.0808 34.0004C52.9859 32.0295 52.4305 29.8046 52.4708 27.5504C52.4313 25.3501 52.9876 23.1802 54.0808 21.2704C55.1378 19.4501 56.6919 17.9688 58.5608 17.0004C60.59 15.9761 62.8381 15.4612 65.1108 15.5004C67.3478 15.4585 69.5593 15.9813 71.5408 17.0204C73.362 18.0003 74.8671 19.4777 75.8808 21.2804C76.941 23.2153 77.4755 25.3944 77.4308 27.6004C77.4308 28.1604 77.4308 28.6004 77.4308 28.9704C77.4206 29.1437 77.3445 29.3066 77.218 29.4256C77.0916 29.5445 76.9244 29.6107 76.7508 29.6104H59.3308C59.5092 31.1078 60.2188 32.4916 61.3308 33.5104C62.456 34.5076 63.9179 35.0401 65.4208 35.0004C66.5843 35.0251 67.7324 34.7312 68.7408 34.1504C69.5272 33.6948 70.1925 33.0569 70.6808 32.2904C70.7584 32.1679 70.8727 32.073 71.0073 32.0192C71.1419 31.9653 71.2901 31.9552 71.4308 31.9904L75.8308 33.1104C75.9261 33.1366 76.0146 33.1829 76.0904 33.2463C76.1662 33.3097 76.2275 33.3886 76.2702 33.4777C76.3129 33.5669 76.3359 33.6641 76.3377 33.7629C76.3395 33.8617 76.3201 33.9597 76.2808 34.0504C75.4704 35.8036 74.1122 37.2461 72.4108 38.1604C70.1894 39.3807 67.6846 39.9914 65.1508 39.9304C62.8673 39.9636 60.6118 39.4239 58.5908 38.3604V38.3604ZM70.6608 25.5204C70.4992 24.1155 69.8308 22.8177 68.7808 21.8704C67.7239 20.9271 66.3469 20.4228 64.9308 20.4604C63.5553 20.4138 62.2151 20.9012 61.1908 21.8204C60.1512 22.8001 59.4774 24.1055 59.2808 25.5204H70.6608Z" fill="#482973"/>
<path d="M44.3895 16.7201L39.3895 32.5001C39.1278 33.3284 38.9929 34.1915 38.9895 35.0601H38.5395C38.5403 34.2017 38.4088 33.3484 38.1495 32.5301L33.1495 16.7201C33.1055 16.5846 33.0201 16.4663 32.9052 16.382C32.7904 16.2976 32.652 16.2515 32.5095 16.2501H26.8995C26.7908 16.2483 26.6833 16.2731 26.5863 16.3221C26.4893 16.3712 26.4057 16.4431 26.3427 16.5317C26.2797 16.6203 26.2392 16.7229 26.2247 16.8306C26.2102 16.9384 26.2222 17.048 26.2595 17.1501L33.7595 38.7301C33.8064 38.8629 33.8929 38.9782 34.0074 39.0605C34.1218 39.1427 34.2586 39.1879 34.3995 39.1901H42.9995C43.14 39.1865 43.2762 39.1408 43.3904 39.0587C43.5045 38.9767 43.5913 38.8622 43.6395 38.7301L51.1395 17.1501C51.1744 17.048 51.1845 16.939 51.169 16.8323C51.1535 16.7255 51.1128 16.6239 51.0502 16.536C50.9877 16.4481 50.9051 16.3763 50.8094 16.3266C50.7136 16.2768 50.6074 16.2506 50.4995 16.2501H44.9995C44.8622 16.2576 44.7305 16.3065 44.6216 16.3904C44.5127 16.4743 44.4317 16.5893 44.3895 16.7201Z" fill="#482973"/>
<path d="M116.878 16.7102L112.468 29.7102C112.197 30.5228 112.059 31.3736 112.058 32.2302H111.608C111.608 31.372 111.438 30.5222 111.108 29.7302L105.648 16.7302C105.594 16.6082 105.506 16.5046 105.394 16.4318C105.282 16.3591 105.152 16.3203 105.018 16.3202H99.4082C99.2888 16.3153 99.1703 16.3425 99.0649 16.3988C98.9595 16.4552 98.8712 16.5387 98.809 16.6407C98.7467 16.7427 98.7129 16.8595 98.711 16.979C98.7091 17.0984 98.7392 17.2162 98.7982 17.3202L109.148 39.5202L105.998 47.8202C105.962 47.9234 105.95 48.0338 105.965 48.1424C105.979 48.2509 106.02 48.3544 106.082 48.4443C106.145 48.5342 106.228 48.6079 106.324 48.6593C106.421 48.7108 106.529 48.7385 106.638 48.7402H111.338C111.476 48.7403 111.61 48.6982 111.723 48.6194C111.835 48.5407 111.921 48.4293 111.968 48.3002L123.588 17.1602C123.628 17.0575 123.641 16.9468 123.628 16.8377C123.614 16.7286 123.574 16.6245 123.511 16.5346C123.447 16.4446 123.363 16.3717 123.265 16.3221C123.167 16.2725 123.058 16.2478 122.948 16.2502H117.518C117.377 16.2494 117.238 16.2935 117.123 16.3761C117.008 16.4587 116.923 16.5757 116.878 16.7102V16.7102Z" fill="#482973"/>
<path d="M94.1878 15.7998C93.0012 15.8034 91.8411 16.1507 90.8478 16.7998C90.5328 17.0014 90.2351 17.2288 89.9578 17.4798C89.5084 17.8868 89.1497 18.3839 88.9051 18.9387C88.6604 19.4934 88.5353 20.0935 88.5378 20.6998H88.0478V19.3998V16.9198C88.0452 16.7412 87.9724 16.5708 87.8451 16.4454C87.7179 16.3201 87.5464 16.2498 87.3678 16.2498H82.1878C82.099 16.2485 82.0108 16.2648 81.9283 16.2979C81.8459 16.331 81.7709 16.3801 81.7076 16.4425C81.6443 16.5048 81.594 16.5791 81.5598 16.6611C81.5255 16.743 81.5078 16.831 81.5078 16.9198V38.5098C81.5078 38.5991 81.5254 38.6875 81.5596 38.77C81.5937 38.8525 81.6438 38.9275 81.707 38.9906C81.7701 39.0538 81.8451 39.1039 81.9276 39.138C82.0101 39.1722 82.0985 39.1898 82.1878 39.1898H87.4578C87.6374 39.1872 87.8088 39.1148 87.9358 38.9878C88.0628 38.8608 88.1352 38.6893 88.1378 38.5098V27.4498C88.0649 25.9004 88.5393 24.3747 89.4778 23.1398C89.8964 22.6106 90.4323 22.1861 91.0432 21.8997C91.6542 21.6133 92.3233 21.473 92.9978 21.4898C93.6104 21.5004 94.2203 21.5742 94.8178 21.7098C95.1778 21.7898 95.5278 21.8798 95.8178 21.9898C95.9193 22.0251 96.0279 22.0355 96.1343 22.02C96.2406 22.0045 96.3417 21.9637 96.429 21.9009C96.5163 21.8382 96.5872 21.7553 96.6357 21.6594C96.6842 21.5635 96.709 21.4573 96.7078 21.3498V16.8198C96.7087 16.6835 96.668 16.5502 96.5912 16.4376C96.5144 16.3251 96.4051 16.2386 96.2778 16.1898C95.6109 15.933 94.9025 15.8008 94.1878 15.7998Z" fill="#482973"/>
<path d="M142.212 27.2701L149.212 17.2701C149.284 17.1696 149.327 17.0511 149.336 16.9278C149.344 16.8045 149.319 16.6812 149.262 16.5715C149.205 16.4618 149.119 16.3699 149.013 16.3061C148.907 16.2424 148.786 16.2091 148.662 16.2101H142.932C142.821 16.208 142.711 16.2345 142.613 16.287C142.515 16.3395 142.432 16.4163 142.372 16.5101L138.452 22.3501C137.983 23.0477 137.732 23.8693 137.732 24.7101H137.282C137.284 23.8722 137.033 23.0533 136.562 22.3601L132.642 16.5201C132.582 16.4263 132.499 16.3495 132.401 16.297C132.303 16.2445 132.193 16.218 132.082 16.2201H126.352C126.228 16.2191 126.107 16.2524 126.001 16.3161C125.895 16.3799 125.809 16.4718 125.752 16.5815C125.695 16.6912 125.67 16.8145 125.679 16.9378C125.687 17.0611 125.73 17.1796 125.802 17.2801L132.802 27.2801L125.412 38.1301C125.341 38.2322 125.298 38.352 125.29 38.4764C125.282 38.6008 125.309 38.725 125.367 38.8354C125.424 38.9458 125.511 39.0383 125.618 39.1026C125.725 39.1669 125.847 39.2006 125.972 39.2001H131.972C132.086 39.1999 132.199 39.1703 132.299 39.1143C132.398 39.0583 132.482 38.9777 132.542 38.8801L136.662 32.3701C137.12 31.6534 137.363 30.8205 137.362 29.9701H137.812C137.811 30.816 138.051 31.6447 138.502 32.3601L142.632 38.8801C142.692 38.9777 142.776 39.0583 142.875 39.1143C142.975 39.1703 143.088 39.1999 143.202 39.2001H149.202C149.327 39.2006 149.449 39.1669 149.556 39.1026C149.663 39.0383 149.75 38.9458 149.807 38.8354C149.865 38.725 149.892 38.6008 149.884 38.4764C149.876 38.352 149.834 38.2322 149.762 38.1301L142.212 27.2701Z" fill="#482973"/>
</g>
<defs>
<clipPath id="clip0_452_5487">
<rect width="156" height="48.74" fill="white"/>
</clipPath>
</defs>
</svg>
